<svg width="473" height="754" viewBox="0 0 473 754" fill="none" xmlns="http://www.w3.org/2000/svg">
<g id="undraw_selfie1_kpqf 1" clip-path="url(#clip0)">
<path id="Vector" d="M161.04 260.1C156.245 267.664 148.652 273.023 139.919 275.007C131.186 276.992 122.022 275.439 114.43 270.69L15.7199 205.64C8.15604 200.845 2.79679 193.252 0.812596 184.519C-1.17159 175.786 0.380516 166.623 5.12995 159.03C9.92481 151.466 17.5179 146.107 26.251 144.123C34.984 142.138 44.1475 143.691 51.74 148.44L150.45 213.49C158.014 218.285 163.373 225.878 165.357 234.611C167.341 243.344 165.789 252.508 161.04 260.1Z" fill="url(#paint0_linear)"/>
<path id="Vector_2" d="M155.59 256.54C151.134 263.573 144.076 268.557 135.957 270.403C127.838 272.249 119.319 270.806 112.26 266.39L20.5 205.87C13.4666 201.414 8.48262 194.356 6.63699 186.237C4.79136 178.118 6.23409 169.599 10.65 162.54C15.1058 155.507 22.1643 150.523 30.2832 148.677C38.4021 146.831 46.9215 148.274 53.98 152.69L145.75 213.16C152.796 217.618 157.787 224.686 159.632 232.817C161.476 240.948 160.023 249.478 155.59 256.54Z" fill="#BE7C5E"/>
<path id="Vector_3" d="M472.04 569.06C472.032 551.112 465.33 533.812 453.244 520.543C441.159 507.274 424.559 498.99 406.69 497.309C388.821 495.629 370.968 500.674 356.62 511.458C342.273 522.241 332.464 537.988 329.11 555.62L107.53 549.62L110.04 587.68C110.04 587.68 78.45 660.58 244.5 680.03V753.74H436.5V631.26C447.333 624.891 456.312 615.8 462.547 604.889C468.781 593.978 472.054 581.626 472.04 569.06Z" fill="url(#paint1_linear)"/>
<path id="Vector_4" d="M88.7 600.47C87.56 620.98 101.44 663.74 230.81 677.71V748.31H430.23V561.31L88.6 552.77L88.71 554.42C89.6662 569.755 89.6628 585.135 88.7 600.47Z" fill="#BE7C5E"/>
<g id="Group" opacity="0.5">
<path id="Vector_5" opacity="0.5" d="M383.95 5.04491e-06L88.76 0.720006C85.5447 0.727954 82.464 2.01219 80.1951 4.29047C77.9262 6.56875 76.6547 9.65466 76.66 12.87L78.04 564.98C78.0439 566.573 78.3616 568.15 78.9748 569.62C79.588 571.09 80.4848 572.425 81.614 573.548C82.7432 574.672 84.0826 575.562 85.5557 576.168C87.0289 576.774 88.6071 577.084 90.2 577.08L385.39 576.36C386.983 576.356 388.56 576.038 390.03 575.425C391.5 574.812 392.835 573.915 393.958 572.786C395.082 571.657 395.972 570.317 396.578 568.844C397.184 567.371 397.494 565.793 397.49 564.2L396.12 12.1C396.116 10.5062 395.798 8.92885 395.184 7.45802C394.57 5.98719 393.673 4.65176 392.542 3.52804C391.412 2.40431 390.072 1.51434 388.597 0.908979C387.123 0.30362 385.544 -0.00525549 383.95 5.04491e-06Z" fill="url(#paint2_linear)"/>
</g>
<path id="Vector_6" d="M378.146 7.53478L94.6066 8.2276C87.0734 8.246 80.9815 14.3678 80.9999 21.9009L82.3042 555.659C82.3226 563.192 88.4443 569.284 95.9775 569.266L379.517 568.573C387.05 568.555 393.142 562.433 393.123 554.9L391.819 21.1414C391.801 13.6083 385.679 7.51637 378.146 7.53478Z" fill="white"/>
<path id="&#60;Path&#62;" d="M314.49 21.76C313.604 27.7101 310.62 33.1472 306.075 37.0885C301.53 41.0298 295.725 43.2153 289.71 43.25L182.35 43.51C176.333 43.5059 170.516 41.3491 165.951 37.4297C161.386 33.5103 158.374 28.0869 157.46 22.14L100.59 22.28C97.4595 22.288 94.4603 23.5385 92.2514 25.7567C90.0425 27.975 88.8046 30.9795 88.81 34.11L90.04 543.41C90.0479 546.54 91.2984 549.54 93.5167 551.749C95.735 553.958 98.7395 555.195 101.87 555.19L373.5 554.53C376.63 554.522 379.63 553.272 381.839 551.053C384.047 548.835 385.285 545.831 385.28 542.7L384.04 33.4C384.032 30.2695 382.781 27.2703 380.563 25.0614C378.345 22.8525 375.34 21.6147 372.21 21.62L314.49 21.76Z" fill="#D813B3"/>
<path id="Vector_7" d="M266.217 28.2195L200.965 29.199C199.86 29.2156 198.978 30.1244 198.995 31.2288L199 31.5588C199.016 32.6632 199.925 33.5451 201.03 33.5286L266.282 32.5491C267.387 32.5325 268.269 31.6237 268.252 30.5193L268.247 30.1893C268.23 29.0849 267.322 28.203 266.217 28.2195Z" fill="#DBDBDB"/>
<path id="Vector_8" d="M282.999 32.2983C284.435 32.2768 285.582 31.0954 285.56 29.6596C285.538 28.2238 284.357 27.0774 282.921 27.0989C281.485 27.1205 280.339 28.3019 280.361 29.7376C280.382 31.1734 281.563 32.3199 282.999 32.2983Z" fill="#DBDBDB"/>
<path id="Vector_9" opacity="0.5" d="M236.87 533.13C250.6 533.13 261.73 522 261.73 508.27C261.73 494.54 250.6 483.41 236.87 483.41C223.14 483.41 212.01 494.54 212.01 508.27C212.01 522 223.14 533.13 236.87 533.13Z" fill="#EEEEEE"/>
<path id="Vector_10" opacity="0.2" d="M236.87 525.79C246.546 525.79 254.39 517.946 254.39 508.27C254.39 498.594 246.546 490.75 236.87 490.75C227.194 490.75 219.35 498.594 219.35 508.27C219.35 517.946 227.194 525.79 236.87 525.79Z" stroke="#D813B3" stroke-miterlimit="10"/>
<path id="Vector_11" opacity="0.5" d="M153.42 493.18H123.24V523.36H153.42V493.18Z" fill="#EEEEEE"/>
<path id="Vector_12" opacity="0.5" d="M346.71 497.52V494.2C346.71 493.935 346.605 493.68 346.417 493.493C346.23 493.305 345.975 493.2 345.71 493.2H334.04C333.775 493.2 333.52 493.305 333.333 493.493C333.145 493.68 333.04 493.935 333.04 494.2V497.52H328.52V495.52H325.84V497.52H322.49V517.59H357.28V497.52H346.71Z" fill="#EEEEEE"/>
<path id="Vector_13" d="M385.13 80.35H88.61V452.33H385.13V80.35Z" fill="url(#paint3_linear)"/>
<path id="Vector_14" opacity="0.7" d="M353.17 65.26C357.583 65.26 361.16 61.6828 361.16 57.27C361.16 52.8573 357.583 49.28 353.17 49.28C348.757 49.28 345.18 52.8573 345.18 57.27C345.18 61.6828 348.757 65.26 353.17 65.26Z" fill="#EEEEEE"/>
<path id="Vector_15" opacity="0.7" d="M358.5 73.25C362.913 73.25 366.49 69.6728 366.49 65.26C366.49 60.8473 362.913 57.27 358.5 57.27C354.087 57.27 350.51 60.8473 350.51 65.26C350.51 69.6728 354.087 73.25 358.5 73.25Z" fill="#EEEEEE"/>
<path id="Vector_16" opacity="0.5" d="M346.96 73.25C351.373 73.25 354.95 69.6728 354.95 65.26C354.95 60.8473 351.373 57.27 346.96 57.27C342.547 57.27 338.97 60.8473 338.97 65.26C338.97 69.6728 342.547 73.25 346.96 73.25Z" fill="#EEEEEE"/>
<path id="Vector_17" opacity="0.7" d="M109.03 49.28L121.46 57.27L103.7 65.26L112.58 73.25" fill="#EEEEEE"/>
<path id="Vector_18" opacity="0.3" d="M176.5 226.84H88.61V452.34H176.5V226.84Z" fill="#D813B3"/>
<path id="Vector_19" opacity="0.3" d="M344.29 399.07H300.79V452.34H344.29V399.07Z" fill="#D813B3"/>
<path id="Vector_20" opacity="0.3" d="M381.59 354.68H344.3V453.22H381.59V354.68Z" fill="#D813B3"/>
<path id="Vector_21" d="M164.04 452.33H149.84C149.84 452.33 145.43 296.97 164.04 249.03H167.59C167.59 249.03 155.19 424.81 164.04 452.33Z" fill="#FFF8E1"/>
<path id="Vector_22" d="M154.31 241.04C154.31 241.04 142.77 273.04 148.1 287.21C148.1 287.21 156.1 257.91 165.41 253.47C174.72 249.03 184.5 287.21 184.5 287.21C184.5 287.21 189.83 263.21 180.06 243.71C180.06 243.71 199.59 254.36 209.36 274.78C209.36 274.78 211.14 261.46 188.05 233.94C188.05 233.94 208.47 239.27 221.79 251.7C221.79 251.7 226.23 241.93 198.71 225.95C198.71 225.95 202.26 214.41 223.57 219.74C223.57 219.74 223.57 204.65 189.83 207.31C189.83 207.31 189.83 197.54 212.02 199.31C212.02 199.31 212.02 186.88 186.27 191.31C186.27 191.31 191.6 183.31 195.15 181.54C195.15 181.54 188.05 180.65 182.72 185.09C182.72 185.09 183.61 169.09 170.29 162.9L168.51 185.09C168.51 185.09 153.59 167.5 156.97 170.89C157.86 171.78 160.52 182.43 159.63 187.76C159.63 187.76 144.54 175.33 125.89 188.65C125.89 188.65 148.97 190.43 152.52 198.42C152.52 198.42 132.99 194.87 128.52 197.53C128.52 197.53 143.61 202.86 142.72 206.41C142.72 206.41 116.09 206.41 112.54 216.18C112.54 216.18 140.06 219.73 141.84 222.39C141.84 222.39 109.84 245.47 108.1 251.69C108.1 251.69 140.95 232.16 146.27 232.16C151.59 232.16 122.27 260.57 124.08 267.67C124.12 267.67 148.09 239.27 154.31 241.04Z" fill="#C8E6C9"/>
<path id="Vector_23" d="M175.75 370.55C175.75 370.55 136.32 383.46 146.31 452.34H164.95L187.19 382L175.75 370.55Z" fill="#BE7C5E"/>
<path id="Vector_24" d="M298.43 370.55C298.43 370.55 336.54 385.23 326.54 454.11L308.24 453.97L286.98 381.97L298.43 370.55Z" fill="#BE7C5E"/>
<path id="Vector_25" d="M177.39 257.69C177.39 257.69 159.39 350.22 149.58 345.31C149.58 345.31 244.27 427.09 327.87 345.31C327.87 345.31 313.15 278.95 291.87 257.69H177.39Z" fill="#333333"/>
<path id="Vector_26" d="M238.09 323.11C276.932 323.11 308.42 291.622 308.42 252.78C308.42 213.938 276.932 182.45 238.09 182.45C199.248 182.45 167.76 213.938 167.76 252.78C167.76 291.622 199.248 323.11 238.09 323.11Z" fill="#333333"/>
<path id="Vector_27" opacity="0.1" d="M309.15 453.97C309.15 453.97 317.33 435.97 310.79 413.08C304.25 390.19 309.15 411.44 309.15 411.44L297.7 370.55H175.04L163.59 419.62C163.59 419.62 156.87 442.34 165.23 452.33" fill="black"/>
<path id="Vector_28" d="M298.43 370.55H175.75L164.3 419.62C164.3 419.62 152.91 452.17 165.94 452.33C310.56 454.11 166.74 452.33 309.88 453.97C309.88 453.97 318.06 435.97 311.52 413.08C304.98 390.19 309.88 411.44 309.88 411.44L298.43 370.55Z" fill="#F55F44"/>
<path id="Vector_29" opacity="0.1" d="M213.38 329.84H262.45V386.9C262.45 387.784 262.276 388.659 261.938 389.475C261.599 390.292 261.104 391.034 260.479 391.659C259.854 392.284 259.112 392.779 258.295 393.118C257.479 393.456 256.604 393.63 255.72 393.63H220.1C219.216 393.63 218.341 393.456 217.525 393.118C216.708 392.779 215.966 392.284 215.341 391.659C214.716 391.034 214.221 390.292 213.882 389.475C213.544 388.659 213.37 387.784 213.37 386.9V329.84H213.38Z" fill="black"/>
<path id="Vector_30" d="M213.38 328H262.45V385.07C262.45 386.855 261.741 388.567 260.479 389.829C259.217 391.091 257.505 391.8 255.72 391.8H220.1C218.315 391.8 216.603 391.091 215.341 389.829C214.079 388.567 213.37 386.855 213.37 385.07V328H213.38Z" fill="#BE7C5E"/>
<path id="Vector_31" opacity="0.1" d="M213.46 335.09C229.274 341.001 246.682 341.05 262.53 335.23V329.23H213.46V335.09Z" fill="black"/>
<path id="Vector_32" d="M238.09 338.38C276.932 338.38 308.42 306.892 308.42 268.05C308.42 229.208 276.932 197.72 238.09 197.72C199.248 197.72 167.76 229.208 167.76 268.05C167.76 306.892 199.248 338.38 238.09 338.38Z" fill="#BE7C5E"/>
<path id="Vector_33" d="M170.85 241.33H304.97C304.97 241.33 293.52 187.17 242.82 190.62C192.12 194.07 170.85 241.33 170.85 241.33Z" fill="#333333"/>
<path id="Vector_34" d="M169.21 277.32C172.822 277.32 175.75 271.827 175.75 265.05C175.75 258.273 172.822 252.78 169.21 252.78C165.598 252.78 162.67 258.273 162.67 265.05C162.67 271.827 165.598 277.32 169.21 277.32Z" fill="#BE7C5E"/>
<path id="Vector_35" d="M306.61 277.32C310.222 277.32 313.15 271.827 313.15 265.05C313.15 258.273 310.222 252.78 306.61 252.78C302.998 252.78 300.07 258.273 300.07 265.05C300.07 271.827 302.998 277.32 306.61 277.32Z" fill="#BE7C5E"/>
<path id="Vector_36" opacity="0.1" d="M170.85 243.15H304.97C304.97 243.15 293.52 188.99 242.82 192.44C192.12 195.89 170.85 243.15 170.85 243.15Z" fill="black"/>
<path id="Vector_37" d="M395.33 640.48C433.46 640.48 464.37 609.57 464.37 571.44C464.37 533.31 433.46 502.4 395.33 502.4C357.2 502.4 326.29 533.31 326.29 571.44C326.29 609.57 357.2 640.48 395.33 640.48Z" fill="#BE7C5E"/>
<path id="Vector_38" d="M439.96 583.61C419.96 588.24 406.17 575.18 401.54 555.15L355.54 384.15C353.337 374.492 355.045 364.354 360.291 355.951C365.537 347.547 373.895 341.561 383.54 339.3C393.198 337.097 403.336 338.805 411.739 344.051C420.143 349.297 426.129 357.655 428.39 367.3L465.97 542.68C470.56 562.77 460.04 578.98 439.96 583.61Z" fill="url(#paint4_linear)"/>
<path id="Vector_39" d="M423.182 371.563C419.276 354.655 402.403 344.116 385.496 348.023C368.588 351.929 358.049 368.802 361.956 385.709L404.292 568.942C408.198 585.849 425.071 596.389 441.979 592.482C458.886 588.576 469.425 571.703 465.519 554.795L423.182 371.563Z" fill="#BE7C5E"/>
<path id="Vector_40" d="M147.75 460.49C143.015 467.951 135.523 473.238 126.906 475.199C118.29 477.16 109.248 475.637 101.75 470.96L35.55 428.13C28.089 423.395 22.8019 415.903 20.8407 407.286C18.8796 398.67 20.4033 389.628 25.08 382.13C29.8152 374.669 37.3072 369.382 45.9236 367.421C54.5399 365.46 63.5822 366.983 71.08 371.66L137.28 414.49C144.741 419.225 150.028 426.717 151.989 435.334C153.95 443.95 152.427 452.992 147.75 460.49Z" fill="url(#paint5_linear)"/>
<path id="Vector_41" d="M131.14 551.16C126.361 558.7 118.793 564.043 110.088 566.022C101.383 568.001 92.2485 566.454 84.68 561.72L43.68 531.81C36.1396 527.031 30.7965 519.463 28.8179 510.758C26.8393 502.053 28.386 492.918 33.12 485.35C37.8986 477.81 45.467 472.467 54.1721 470.488C62.8771 468.509 72.0115 470.056 79.58 474.79L120.58 504.7C128.12 509.479 133.463 517.047 135.442 525.752C137.421 534.457 135.874 543.591 131.14 551.16Z" fill="url(#paint6_linear)"/>
<path id="Vector_42" d="M127.84 548.94C123.384 555.973 116.326 560.957 108.207 562.803C100.088 564.649 91.5685 563.206 84.51 558.79L46.27 530.87C39.2366 526.414 34.2526 519.356 32.4069 511.237C30.5613 503.118 32.0041 494.599 36.42 487.54C40.8758 480.507 47.9342 475.523 56.0531 473.677C64.172 471.831 72.6914 473.274 79.75 477.69L117.99 505.58C125.032 510.036 130.021 517.1 131.867 525.226C133.713 533.353 132.265 541.879 127.84 548.94Z" fill="#BE7C5E"/>
<path id="Vector_43" d="M144.13 458.17C139.674 465.203 132.616 470.187 124.497 472.033C116.378 473.879 107.859 472.436 100.8 468.02L38.51 427.72C31.4766 423.264 26.4926 416.206 24.647 408.087C22.8014 399.968 24.2441 391.449 28.66 384.39C33.1163 377.343 40.184 372.349 48.315 370.503C56.446 368.657 64.9773 370.108 72.04 374.54L134.28 414.87C141.305 419.326 146.283 426.378 148.129 434.49C149.974 442.602 148.536 451.114 144.13 458.17Z" fill="#BE7C5E"/>
<path id="Vector_44" d="M164.88 370.27C160.122 377.778 152.586 383.098 143.918 385.067C135.25 387.037 126.155 385.495 118.62 380.78L34.72 326.15C27.2063 321.392 21.8826 313.852 19.913 305.179C17.9435 296.506 19.4885 287.407 24.21 279.87C28.968 272.362 36.5042 267.042 45.1721 265.073C53.84 263.103 62.935 264.645 70.47 269.36L154.37 323.99C161.884 328.748 167.207 336.288 169.177 344.961C171.147 353.633 169.602 362.733 164.88 370.27Z" fill="url(#paint7_linear)"/>
<g id="block" style="mix-blend-mode:soft-light">
<rect x="137" y="144" width="194" height="199" fill="#BDBDBD"/>
<rect x="137" y="144" width="194" height="199" stroke="#F210C8" stroke-width="10" stroke-linejoin="bevel"/>
</g>
<path id="Vector_45" d="M160.42 367.41C155.964 374.443 148.906 379.427 140.787 381.273C132.668 383.119 124.149 381.676 117.09 377.26L38.51 326.1C31.4766 321.644 26.4926 314.586 24.647 306.467C22.8014 298.348 24.2441 289.829 28.66 282.77C33.1082 275.714 40.1724 270.71 48.304 268.855C56.4356 266.999 64.9713 268.443 72.04 272.87L150.62 324.03C157.659 328.494 162.642 335.566 164.479 343.696C166.316 351.826 164.856 360.353 160.42 367.41Z" fill="#BE7C5E"/>
<g id="Jane Doe" style="mix-blend-mode:darken">
<path d="M256.368 123.359H258.441V134.435C258.441 135.931 257.99 137.102 257.088 137.947C256.193 138.792 254.997 139.215 253.5 139.215C251.946 139.215 250.736 138.817 249.869 138.022C249.003 137.228 248.569 136.114 248.569 134.682H250.632C250.632 135.577 250.875 136.275 251.362 136.776C251.856 137.278 252.569 137.528 253.5 137.528C254.352 137.528 255.04 137.26 255.562 136.723C256.092 136.186 256.361 135.434 256.368 134.467V123.359ZM268.818 139C268.704 138.771 268.611 138.363 268.539 137.775C267.615 138.735 266.512 139.215 265.23 139.215C264.085 139.215 263.143 138.893 262.405 138.248C261.675 137.596 261.31 136.773 261.31 135.777C261.31 134.567 261.768 133.629 262.685 132.963C263.608 132.29 264.905 131.953 266.573 131.953H268.507V131.04C268.507 130.345 268.299 129.794 267.884 129.386C267.468 128.97 266.856 128.763 266.047 128.763C265.338 128.763 264.743 128.942 264.264 129.3C263.784 129.658 263.544 130.091 263.544 130.6H261.546C261.546 130.02 261.75 129.461 262.158 128.924C262.574 128.38 263.132 127.95 263.834 127.635C264.543 127.32 265.32 127.162 266.165 127.162C267.504 127.162 268.553 127.499 269.312 128.172C270.072 128.838 270.465 129.758 270.494 130.933V136.282C270.494 137.349 270.63 138.198 270.902 138.828V139H268.818ZM265.521 137.485C266.144 137.485 266.734 137.324 267.293 137.002C267.852 136.68 268.256 136.261 268.507 135.745V133.36H266.949C264.514 133.36 263.297 134.073 263.297 135.498C263.297 136.121 263.505 136.608 263.92 136.959C264.335 137.31 264.869 137.485 265.521 137.485ZM275.489 127.377L275.554 128.838C276.442 127.721 277.602 127.162 279.034 127.162C281.491 127.162 282.729 128.548 282.751 131.319V139H280.764V131.309C280.757 130.471 280.563 129.851 280.184 129.45C279.811 129.049 279.228 128.849 278.433 128.849C277.788 128.849 277.222 129.021 276.735 129.364C276.248 129.708 275.869 130.159 275.597 130.718V139H273.609V127.377H275.489ZM290.571 139.215C288.996 139.215 287.714 138.699 286.726 137.668C285.737 136.63 285.243 135.244 285.243 133.511V133.146C285.243 131.993 285.462 130.965 285.898 130.062C286.342 129.153 286.958 128.444 287.746 127.936C288.541 127.42 289.4 127.162 290.324 127.162C291.835 127.162 293.01 127.66 293.848 128.655C294.686 129.651 295.104 131.076 295.104 132.931V133.758H287.23C287.259 134.904 287.592 135.831 288.229 136.54C288.874 137.242 289.69 137.593 290.679 137.593C291.381 137.593 291.975 137.45 292.462 137.163C292.949 136.877 293.375 136.497 293.74 136.024L294.954 136.97C293.98 138.466 292.519 139.215 290.571 139.215ZM290.324 128.795C289.522 128.795 288.849 129.089 288.305 129.676C287.76 130.256 287.424 131.072 287.295 132.125H293.117V131.975C293.06 130.965 292.788 130.184 292.301 129.633C291.814 129.074 291.155 128.795 290.324 128.795ZM303.183 139V123.359H307.598C308.958 123.359 310.161 123.66 311.207 124.262C312.253 124.863 313.058 125.719 313.624 126.829C314.197 127.939 314.487 129.214 314.494 130.653V131.652C314.494 133.128 314.208 134.42 313.635 135.53C313.069 136.64 312.256 137.493 311.196 138.087C310.144 138.681 308.915 138.986 307.512 139H303.183ZM305.245 125.057V137.313H307.415C309.005 137.313 310.24 136.819 311.121 135.831C312.009 134.843 312.453 133.436 312.453 131.609V130.696C312.453 128.92 312.034 127.542 311.196 126.561C310.366 125.572 309.184 125.071 307.651 125.057H305.245ZM316.782 133.081C316.782 131.942 317.004 130.918 317.448 130.009C317.899 129.099 318.522 128.397 319.317 127.903C320.119 127.409 321.033 127.162 322.057 127.162C323.639 127.162 324.918 127.71 325.892 128.806C326.873 129.901 327.363 131.359 327.363 133.178V133.317C327.363 134.449 327.145 135.466 326.708 136.368C326.278 137.263 325.659 137.962 324.85 138.463C324.048 138.964 323.124 139.215 322.078 139.215C320.503 139.215 319.224 138.667 318.243 137.571C317.269 136.476 316.782 135.025 316.782 133.221V133.081ZM318.78 133.317C318.78 134.606 319.077 135.641 319.672 136.422C320.273 137.202 321.076 137.593 322.078 137.593C323.088 137.593 323.89 137.199 324.484 136.411C325.079 135.616 325.376 134.506 325.376 133.081C325.376 131.806 325.072 130.775 324.463 129.987C323.861 129.192 323.059 128.795 322.057 128.795C321.076 128.795 320.284 129.185 319.683 129.966C319.081 130.746 318.78 131.864 318.78 133.317ZM334.679 139.215C333.103 139.215 331.821 138.699 330.833 137.668C329.845 136.63 329.351 135.244 329.351 133.511V133.146C329.351 131.993 329.569 130.965 330.006 130.062C330.45 129.153 331.066 128.444 331.854 127.936C332.648 127.42 333.508 127.162 334.432 127.162C335.943 127.162 337.117 127.66 337.955 128.655C338.793 129.651 339.212 131.076 339.212 132.931V133.758H331.338C331.367 134.904 331.7 135.831 332.337 136.54C332.981 137.242 333.798 137.593 334.786 137.593C335.488 137.593 336.082 137.45 336.569 137.163C337.056 136.877 337.482 136.497 337.848 136.024L339.062 136.97C338.088 138.466 336.627 139.215 334.679 139.215ZM334.432 128.795C333.63 128.795 332.956 129.089 332.412 129.676C331.868 130.256 331.531 131.072 331.402 132.125H337.225V131.975C337.167 130.965 336.895 130.184 336.408 129.633C335.921 129.074 335.262 128.795 334.432 128.795Z" fill="#BB6BD9"/>
</g>
</g>
<defs>
<linearGradient id="paint0_linear" x1="83.1299" y1="275.85" x2="83.1299" y2="143.26" gradientUnits="userSpaceOnUse">
<stop stop-color="#808080" stop-opacity="0.25"/>
<stop offset="0.54" stop-color="#808080" stop-opacity="0.12"/>
<stop offset="1" stop-color="#808080" stop-opacity="0.1"/>
</linearGradient>
<linearGradient id="paint1_linear" x1="238421" y1="212794" x2="238421" y2="146866" gradientUnits="userSpaceOnUse">
<stop stop-color="#808080" stop-opacity="0.25"/>
<stop offset="0.54" stop-color="#808080" stop-opacity="0.12"/>
<stop offset="1" stop-color="#808080" stop-opacity="0.1"/>
</linearGradient>
<linearGradient id="paint2_linear" x1="157390" y1="382477" x2="352445" y2="125101" gradientUnits="userSpaceOnUse">
<stop stop-color="#808080" stop-opacity="0.25"/>
<stop offset="0.54" stop-color="#808080" stop-opacity="0.12"/>
<stop offset="1" stop-color="#808080" stop-opacity="0.1"/>
</linearGradient>
<linearGradient id="paint3_linear" x1="236.87" y1="452.34" x2="236.87" y2="80.35" gradientUnits="userSpaceOnUse">
<stop stop-color="#FCFDFF"/>
<stop offset="1" stop-color="#B2EBF2"/>
</linearGradient>
<linearGradient id="paint4_linear" x1="87461.7" y1="162246" x2="87461.7" y2="101645" gradientUnits="userSpaceOnUse">
<stop stop-color="#808080" stop-opacity="0.25"/>
<stop offset="0.54" stop-color="#808080" stop-opacity="0.12"/>
<stop offset="1" stop-color="#808080" stop-opacity="0.1"/>
</linearGradient>
<linearGradient id="paint5_linear" x1="59836.4" y1="60475" x2="59836.4" y2="48484.8" gradientUnits="userSpaceOnUse">
<stop stop-color="#808080" stop-opacity="0.25"/>
<stop offset="0.54" stop-color="#808080" stop-opacity="0.12"/>
<stop offset="1" stop-color="#808080" stop-opacity="0.1"/>
</linearGradient>
<linearGradient id="paint6_linear" x1="48341.8" y1="62687.3" x2="48341.8" y2="53235.1" gradientUnits="userSpaceOnUse">
<stop stop-color="#808080" stop-opacity="0.25"/>
<stop offset="0.54" stop-color="#808080" stop-opacity="0.12"/>
<stop offset="1" stop-color="#808080" stop-opacity="0.1"/>
</linearGradient>
<linearGradient id="paint7_linear" x1="69222.7" y1="56115.4" x2="69222.7" y2="41313.4" gradientUnits="userSpaceOnUse">
<stop stop-color="#808080" stop-opacity="0.25"/>
<stop offset="0.54" stop-color="#808080" stop-opacity="0.12"/>
<stop offset="1" stop-color="#808080" stop-opacity="0.1"/>
</linearGradient>
<clipPath id="clip0">
<rect width="472.08" height="753.74" fill="white"/>
</clipPath>
</defs>
</svg>
