<svg width="473" height="754" viewBox="0 0 473 754" fill="none" xmlns="http://www.w3.org/2000/svg">
<g id="undraw_selfie1_kpqf 1" clip-path="url(#clip0)">
<path id="Vector" d="M161.04 260.1C156.245 267.664 148.652 273.023 139.919 275.007C131.186 276.992 122.022 275.439 114.43 270.69L15.7199 205.64C8.15604 200.845 2.79679 193.252 0.812596 184.519C-1.17159 175.786 0.380516 166.623 5.12995 159.03C9.92481 151.466 17.5179 146.107 26.251 144.123C34.984 142.138 44.1475 143.691 51.74 148.44L150.45 213.49C158.014 218.285 163.373 225.878 165.357 234.611C167.341 243.344 165.789 252.508 161.04 260.1Z" fill="url(#paint0_linear)"/>
<path id="Vector_2" d="M155.59 256.54C151.134 263.573 144.076 268.557 135.957 270.403C127.838 272.249 119.319 270.806 112.26 266.39L20.5 205.87C13.4666 201.414 8.48262 194.356 6.63699 186.237C4.79136 178.118 6.23409 169.599 10.65 162.54C15.1058 155.507 22.1643 150.523 30.2832 148.677C38.4021 146.831 46.9215 148.274 53.98 152.69L145.75 213.16C152.796 217.618 157.787 224.686 159.632 232.817C161.476 240.948 160.023 249.478 155.59 256.54Z" fill="#BE7C5E"/>
<path id="Vector_3" d="M472.04 569.06C472.032 551.112 465.33 533.812 453.244 520.543C441.159 507.274 424.559 498.99 406.69 497.309C388.821 495.629 370.968 500.674 356.62 511.458C342.273 522.241 332.464 537.988 329.11 555.62L107.53 549.62L110.04 587.68C110.04 587.68 78.45 660.58 244.5 680.03V753.74H436.5V631.26C447.333 624.891 456.312 615.8 462.547 604.889C468.781 593.978 472.054 581.626 472.04 569.06Z" fill="url(#paint1_linear)"/>
<path id="Vector_4" d="M88.7 600.47C87.56 620.98 101.44 663.74 230.81 677.71V748.31H430.23V561.31L88.6 552.77L88.71 554.42C89.6662 569.755 89.6628 585.135 88.7 600.47Z" fill="#BE7C5E"/>
<g id="Group" opacity="0.5">
<path id="Vector_5" opacity="0.5" d="M383.95 5.04491e-06L88.76 0.720006C85.5447 0.727954 82.464 2.01219 80.1951 4.29047C77.9262 6.56875 76.6547 9.65466 76.66 12.87L78.04 564.98C78.0439 566.573 78.3616 568.15 78.9748 569.62C79.588 571.09 80.4848 572.425 81.614 573.548C82.7432 574.672 84.0826 575.562 85.5557 576.168C87.0289 576.774 88.6071 577.084 90.2 577.08L385.39 576.36C386.983 576.356 388.56 576.038 390.03 575.425C391.5 574.812 392.835 573.915 393.958 572.786C395.082 571.657 395.972 570.317 396.578 568.844C397.184 567.371 397.494 565.793 397.49 564.2L396.12 12.1C396.116 10.5062 395.798 8.92885 395.184 7.45802C394.57 5.98719 393.673 4.65176 392.542 3.52804C391.412 2.40431 390.072 1.51434 388.597 0.908979C387.123 0.30362 385.544 -0.00525549 383.95 5.04491e-06Z" fill="url(#paint2_linear)"/>
</g>
<path id="Vector_6" d="M378.146 7.53478L94.6066 8.2276C87.0734 8.246 80.9815 14.3678 80.9999 21.9009L82.3042 555.659C82.3226 563.192 88.4443 569.284 95.9775 569.266L379.517 568.573C387.05 568.555 393.142 562.433 393.123 554.9L391.819 21.1414C391.801 13.6083 385.679 7.51637 378.146 7.53478Z" fill="white"/>
<path id="&#60;Path&#62;" d="M314.49 21.76C313.604 27.7101 310.62 33.1472 306.075 37.0885C301.53 41.0298 295.725 43.2153 289.71 43.25L182.35 43.51C176.333 43.5059 170.516 41.3491 165.951 37.4297C161.386 33.5103 158.374 28.0869 157.46 22.14L100.59 22.28C97.4595 22.288 94.4603 23.5385 92.2514 25.7567C90.0425 27.975 88.8046 30.9795 88.81 34.11L90.04 543.41C90.0479 546.54 91.2984 549.54 93.5167 551.749C95.735 553.958 98.7395 555.195 101.87 555.19L373.5 554.53C376.63 554.522 379.63 553.272 381.839 551.053C384.047 548.835 385.285 545.831 385.28 542.7L384.04 33.4C384.032 30.2695 382.781 27.2703 380.563 25.0614C378.345 22.8525 375.34 21.6147 372.21 21.62L314.49 21.76Z" fill="#D813B3"/>
<path id="Vector_7" d="M266.217 28.2195L200.965 29.199C199.86 29.2156 198.978 30.1244 198.995 31.2288L199 31.5588C199.016 32.6632 199.925 33.5451 201.03 33.5286L266.282 32.5491C267.387 32.5325 268.269 31.6237 268.252 30.5193L268.247 30.1893C268.23 29.0849 267.322 28.203 266.217 28.2195Z" fill="#DBDBDB"/>
<path id="Vector_8" d="M282.999 32.2983C284.435 32.2768 285.582 31.0954 285.56 29.6596C285.538 28.2238 284.357 27.0774 282.921 27.0989C281.485 27.1205 280.339 28.3019 280.361 29.7376C280.382 31.1734 281.563 32.3199 282.999 32.2983Z" fill="#DBDBDB"/>
<path id="Vector_9" opacity="0.5" d="M236.87 533.13C250.6 533.13 261.73 522 261.73 508.27C261.73 494.54 250.6 483.41 236.87 483.41C223.14 483.41 212.01 494.54 212.01 508.27C212.01 522 223.14 533.13 236.87 533.13Z" fill="#EEEEEE"/>
<path id="Vector_10" opacity="0.2" d="M236.87 525.79C246.546 525.79 254.39 517.946 254.39 508.27C254.39 498.594 246.546 490.75 236.87 490.75C227.194 490.75 219.35 498.594 219.35 508.27C219.35 517.946 227.194 525.79 236.87 525.79Z" stroke="#D813B3" stroke-miterlimit="10"/>
<path id="Vector_11" opacity="0.5" d="M153.42 493.18H123.24V523.36H153.42V493.18Z" fill="#EEEEEE"/>
<path id="Vector_12" opacity="0.5" d="M346.71 497.52V494.2C346.71 493.935 346.605 493.68 346.417 493.493C346.23 493.305 345.975 493.2 345.71 493.2H334.04C333.775 493.2 333.52 493.305 333.333 493.493C333.145 493.68 333.04 493.935 333.04 494.2V497.52H328.52V495.52H325.84V497.52H322.49V517.59H357.28V497.52H346.71Z" fill="#EEEEEE"/>
<path id="Vector_13" d="M385.13 80.35H88.61V452.33H385.13V80.35Z" fill="url(#paint3_linear)"/>
<path id="Vector_14" opacity="0.7" d="M353.17 65.26C357.583 65.26 361.16 61.6828 361.16 57.27C361.16 52.8573 357.583 49.28 353.17 49.28C348.757 49.28 345.18 52.8573 345.18 57.27C345.18 61.6828 348.757 65.26 353.17 65.26Z" fill="#EEEEEE"/>
<path id="Vector_15" opacity="0.7" d="M358.5 73.25C362.913 73.25 366.49 69.6728 366.49 65.26C366.49 60.8473 362.913 57.27 358.5 57.27C354.087 57.27 350.51 60.8473 350.51 65.26C350.51 69.6728 354.087 73.25 358.5 73.25Z" fill="#EEEEEE"/>
<path id="Vector_16" opacity="0.5" d="M346.96 73.25C351.373 73.25 354.95 69.6728 354.95 65.26C354.95 60.8473 351.373 57.27 346.96 57.27C342.547 57.27 338.97 60.8473 338.97 65.26C338.97 69.6728 342.547 73.25 346.96 73.25Z" fill="#EEEEEE"/>
<path id="Vector_17" opacity="0.7" d="M109.03 49.28L121.46 57.27L103.7 65.26L112.58 73.25" fill="#EEEEEE"/>
<path id="Vector_18" opacity="0.3" d="M176.5 226.84H88.61V452.34H176.5V226.84Z" fill="#D813B3"/>
<path id="Vector_19" opacity="0.3" d="M344.29 399.07H300.79V452.34H344.29V399.07Z" fill="#D813B3"/>
<path id="Vector_20" opacity="0.3" d="M381.59 354.68H344.3V453.22H381.59V354.68Z" fill="#D813B3"/>
<path id="Vector_21" d="M164.04 452.33H149.84C149.84 452.33 145.43 296.97 164.04 249.03H167.59C167.59 249.03 155.19 424.81 164.04 452.33Z" fill="#FFF8E1"/>
<path id="Vector_22" d="M154.31 241.04C154.31 241.04 142.77 273.04 148.1 287.21C148.1 287.21 156.1 257.91 165.41 253.47C174.72 249.03 184.5 287.21 184.5 287.21C184.5 287.21 189.83 263.21 180.06 243.71C180.06 243.71 199.59 254.36 209.36 274.78C209.36 274.78 211.14 261.46 188.05 233.94C188.05 233.94 208.47 239.27 221.79 251.7C221.79 251.7 226.23 241.93 198.71 225.95C198.71 225.95 202.26 214.41 223.57 219.74C223.57 219.74 223.57 204.65 189.83 207.31C189.83 207.31 189.83 197.54 212.02 199.31C212.02 199.31 212.02 186.88 186.27 191.31C186.27 191.31 191.6 183.31 195.15 181.54C195.15 181.54 188.05 180.65 182.72 185.09C182.72 185.09 183.61 169.09 170.29 162.9L168.51 185.09C168.51 185.09 153.59 167.5 156.97 170.89C157.86 171.78 160.52 182.43 159.63 187.76C159.63 187.76 144.54 175.33 125.89 188.65C125.89 188.65 148.97 190.43 152.52 198.42C152.52 198.42 132.99 194.87 128.52 197.53C128.52 197.53 143.61 202.86 142.72 206.41C142.72 206.41 116.09 206.41 112.54 216.18C112.54 216.18 140.06 219.73 141.84 222.39C141.84 222.39 109.84 245.47 108.1 251.69C108.1 251.69 140.95 232.16 146.27 232.16C151.59 232.16 122.27 260.57 124.08 267.67C124.12 267.67 148.09 239.27 154.31 241.04Z" fill="#C8E6C9"/>
<path id="Vector_23" d="M175.75 370.55C175.75 370.55 136.32 383.46 146.31 452.34H164.95L187.19 382L175.75 370.55Z" fill="#BE7C5E"/>
<path id="Vector_24" d="M298.43 370.55C298.43 370.55 336.54 385.23 326.54 454.11L308.24 453.97L286.98 381.97L298.43 370.55Z" fill="#BE7C5E"/>
<path id="Vector_25" d="M177.39 257.69C177.39 257.69 159.39 350.22 149.58 345.31C149.58 345.31 244.27 427.09 327.87 345.31C327.87 345.31 313.15 278.95 291.87 257.69H177.39Z" fill="#333333"/>
<path id="Vector_26" d="M238.09 323.11C276.932 323.11 308.42 291.622 308.42 252.78C308.42 213.938 276.932 182.45 238.09 182.45C199.248 182.45 167.76 213.938 167.76 252.78C167.76 291.622 199.248 323.11 238.09 323.11Z" fill="#333333"/>
<path id="Vector_27" opacity="0.1" d="M309.15 453.97C309.15 453.97 317.33 435.97 310.79 413.08C304.25 390.19 309.15 411.44 309.15 411.44L297.7 370.55H175.04L163.59 419.62C163.59 419.62 156.87 442.34 165.23 452.33" fill="black"/>
<path id="Vector_28" d="M298.43 370.55H175.75L164.3 419.62C164.3 419.62 152.91 452.17 165.94 452.33C310.56 454.11 166.74 452.33 309.88 453.97C309.88 453.97 318.06 435.97 311.52 413.08C304.98 390.19 309.88 411.44 309.88 411.44L298.43 370.55Z" fill="#F55F44"/>
<path id="Vector_29" opacity="0.1" d="M213.38 329.84H262.45V386.9C262.45 387.784 262.276 388.659 261.938 389.475C261.599 390.292 261.104 391.034 260.479 391.659C259.854 392.284 259.112 392.779 258.295 393.118C257.479 393.456 256.604 393.63 255.72 393.63H220.1C219.216 393.63 218.341 393.456 217.525 393.118C216.708 392.779 215.966 392.284 215.341 391.659C214.716 391.034 214.221 390.292 213.882 389.475C213.544 388.659 213.37 387.784 213.37 386.9V329.84H213.38Z" fill="black"/>
<path id="Vector_30" d="M213.38 328H262.45V385.07C262.45 386.855 261.741 388.567 260.479 389.829C259.217 391.091 257.505 391.8 255.72 391.8H220.1C218.315 391.8 216.603 391.091 215.341 389.829C214.079 388.567 213.37 386.855 213.37 385.07V328H213.38Z" fill="#BE7C5E"/>
<path id="Vector_31" opacity="0.1" d="M213.46 335.09C229.274 341.001 246.682 341.05 262.53 335.23V329.23H213.46V335.09Z" fill="black"/>
<path id="Vector_32" d="M238.09 338.38C276.932 338.38 308.42 306.892 308.42 268.05C308.42 229.208 276.932 197.72 238.09 197.72C199.248 197.72 167.76 229.208 167.76 268.05C167.76 306.892 199.248 338.38 238.09 338.38Z" fill="#BE7C5E"/>
<path id="Vector_33" d="M170.85 241.33H304.97C304.97 241.33 293.52 187.17 242.82 190.62C192.12 194.07 170.85 241.33 170.85 241.33Z" fill="#333333"/>
<path id="Vector_34" d="M169.21 277.32C172.822 277.32 175.75 271.827 175.75 265.05C175.75 258.273 172.822 252.78 169.21 252.78C165.598 252.78 162.67 258.273 162.67 265.05C162.67 271.827 165.598 277.32 169.21 277.32Z" fill="#BE7C5E"/>
<path id="Vector_35" d="M306.61 277.32C310.222 277.32 313.15 271.827 313.15 265.05C313.15 258.273 310.222 252.78 306.61 252.78C302.998 252.78 300.07 258.273 300.07 265.05C300.07 271.827 302.998 277.32 306.61 277.32Z" fill="#BE7C5E"/>
<path id="Vector_36" opacity="0.1" d="M170.85 243.15H304.97C304.97 243.15 293.52 188.99 242.82 192.44C192.12 195.89 170.85 243.15 170.85 243.15Z" fill="black"/>
<path id="Vector_37" d="M395.33 640.48C433.46 640.48 464.37 609.57 464.37 571.44C464.37 533.31 433.46 502.4 395.33 502.4C357.2 502.4 326.29 533.31 326.29 571.44C326.29 609.57 357.2 640.48 395.33 640.48Z" fill="#BE7C5E"/>
<path id="Vector_38" d="M439.96 583.61C419.96 588.24 406.17 575.18 401.54 555.15L355.54 384.15C353.337 374.492 355.045 364.354 360.291 355.951C365.537 347.547 373.895 341.561 383.54 339.3C393.198 337.097 403.336 338.805 411.739 344.051C420.143 349.297 426.129 357.655 428.39 367.3L465.97 542.68C470.56 562.77 460.04 578.98 439.96 583.61Z" fill="url(#paint4_linear)"/>
<path id="Vector_39" d="M423.182 371.563C419.276 354.655 402.403 344.116 385.496 348.023C368.588 351.929 358.049 368.802 361.956 385.709L404.292 568.942C408.198 585.849 425.071 596.389 441.979 592.482C458.886 588.576 469.425 571.703 465.519 554.795L423.182 371.563Z" fill="#BE7C5E"/>
<path id="Vector_40" d="M147.75 460.49C143.015 467.951 135.523 473.238 126.906 475.199C118.29 477.16 109.248 475.637 101.75 470.96L35.55 428.13C28.089 423.395 22.8019 415.903 20.8407 407.286C18.8796 398.67 20.4033 389.628 25.08 382.13C29.8152 374.669 37.3072 369.382 45.9236 367.421C54.5399 365.46 63.5822 366.983 71.08 371.66L137.28 414.49C144.741 419.225 150.028 426.717 151.989 435.334C153.95 443.95 152.427 452.992 147.75 460.49Z" fill="url(#paint5_linear)"/>
<path id="Vector_41" d="M131.14 551.16C126.361 558.7 118.793 564.043 110.088 566.022C101.383 568.001 92.2485 566.454 84.68 561.72L43.68 531.81C36.1396 527.031 30.7965 519.463 28.8179 510.758C26.8393 502.053 28.386 492.918 33.12 485.35C37.8986 477.81 45.467 472.467 54.1721 470.488C62.8771 468.509 72.0115 470.056 79.58 474.79L120.58 504.7C128.12 509.479 133.463 517.047 135.442 525.752C137.421 534.457 135.874 543.591 131.14 551.16Z" fill="url(#paint6_linear)"/>
<path id="Vector_42" d="M127.84 548.94C123.384 555.973 116.326 560.957 108.207 562.803C100.088 564.649 91.5685 563.206 84.51 558.79L46.27 530.87C39.2366 526.414 34.2526 519.356 32.4069 511.237C30.5613 503.118 32.0041 494.599 36.42 487.54C40.8758 480.507 47.9342 475.523 56.0531 473.677C64.172 471.831 72.6914 473.274 79.75 477.69L117.99 505.58C125.032 510.036 130.021 517.1 131.867 525.226C133.713 533.353 132.265 541.879 127.84 548.94Z" fill="#BE7C5E"/>
<path id="Vector_43" d="M144.13 458.17C139.674 465.203 132.616 470.187 124.497 472.033C116.378 473.879 107.859 472.436 100.8 468.02L38.51 427.72C31.4766 423.264 26.4926 416.206 24.647 408.087C22.8014 399.968 24.2441 391.449 28.66 384.39C33.1163 377.343 40.184 372.349 48.315 370.503C56.446 368.657 64.9773 370.108 72.04 374.54L134.28 414.87C141.305 419.326 146.283 426.378 148.129 434.49C149.974 442.602 148.536 451.114 144.13 458.17Z" fill="#BE7C5E"/>
<path id="Vector_44" d="M164.88 370.27C160.122 377.778 152.586 383.098 143.918 385.067C135.25 387.037 126.155 385.495 118.62 380.78L34.72 326.15C27.2063 321.392 21.8826 313.852 19.913 305.179C17.9435 296.506 19.4885 287.407 24.21 279.87C28.968 272.362 36.5042 267.042 45.1721 265.073C53.84 263.103 62.935 264.645 70.47 269.36L154.37 323.99C161.884 328.748 167.207 336.288 169.177 344.961C171.147 353.633 169.602 362.733 164.88 370.27Z" fill="url(#paint7_linear)"/>
<path id="Vector_45" d="M160.42 367.41C155.964 374.443 148.906 379.427 140.787 381.273C132.668 383.119 124.149 381.676 117.09 377.26L38.51 326.1C31.4766 321.644 26.4926 314.586 24.647 306.467C22.8014 298.348 24.2441 289.829 28.66 282.77C33.1082 275.714 40.1724 270.71 48.304 268.855C56.4356 266.999 64.9713 268.443 72.04 272.87L150.62 324.03C157.659 328.494 162.642 335.566 164.479 343.696C166.316 351.826 164.856 360.353 160.42 367.41Z" fill="#BE7C5E"/>

<g id="block" style="mix-blend-mode:soft-light">
<rect x="137" y="144" width="194" height="199" fill="#BDBDBD"/>
<rect x="137" y="144" width="194" height="199" stroke="#F210C8" stroke-width="10" stroke-linejoin="bevel"/>
</g>
<g id="Jane Doe" style="mix-blend-mode:darken">
<path d="M256.368 123.359H258.441V134.435C258.441 135.931 257.99 137.102 257.088 137.947C256.193 138.792 254.997 139.215 253.5 139.215C251.946 139.215 250.736 138.817 249.869 138.022C249.003 137.228 248.569 136.114 248.569 134.682H250.632C250.632 135.577 250.875 136.275 251.362 136.776C251.856 137.278 252.569 137.528 253.5 137.528C254.352 137.528 255.04 137.26 255.562 136.723C256.092 136.186 256.361 135.434 256.368 134.467V123.359ZM268.818 139C268.704 138.771 268.611 138.363 268.539 137.775C267.615 138.735 266.512 139.215 265.23 139.215C264.085 139.215 263.143 138.893 262.405 138.248C261.675 137.596 261.31 136.773 261.31 135.777C261.31 134.567 261.768 133.629 262.685 132.963C263.608 132.29 264.905 131.953 266.573 131.953H268.507V131.04C268.507 130.345 268.299 129.794 267.884 129.386C267.468 128.97 266.856 128.763 266.047 128.763C265.338 128.763 264.743 128.942 264.264 129.3C263.784 129.658 263.544 130.091 263.544 130.6H261.546C261.546 130.02 261.75 129.461 262.158 128.924C262.574 128.38 263.132 127.95 263.834 127.635C264.543 127.32 265.32 127.162 266.165 127.162C267.504 127.162 268.553 127.499 269.312 128.172C270.072 128.838 270.465 129.758 270.494 130.933V136.282C270.494 137.349 270.63 138.198 270.902 138.828V139H268.818ZM265.521 137.485C266.144 137.485 266.734 137.324 267.293 137.002C267.852 136.68 268.256 136.261 268.507 135.745V133.36H266.949C264.514 133.36 263.297 134.073 263.297 135.498C263.297 136.121 263.505 136.608 263.92 136.959C264.335 137.31 264.869 137.485 265.521 137.485ZM275.489 127.377L275.554 128.838C276.442 127.721 277.602 127.162 279.034 127.162C281.491 127.162 282.729 128.548 282.751 131.319V139H280.764V131.309C280.757 130.471 280.563 129.851 280.184 129.45C279.811 129.049 279.228 128.849 278.433 128.849C277.788 128.849 277.222 129.021 276.735 129.364C276.248 129.708 275.869 130.159 275.597 130.718V139H273.609V127.377H275.489ZM290.571 139.215C288.996 139.215 287.714 138.699 286.726 137.668C285.737 136.63 285.243 135.244 285.243 133.511V133.146C285.243 131.993 285.462 130.965 285.898 130.062C286.342 129.153 286.958 128.444 287.746 127.936C288.541 127.42 289.4 127.162 290.324 127.162C291.835 127.162 293.01 127.66 293.848 128.655C294.686 129.651 295.104 131.076 295.104 132.931V133.758H287.23C287.259 134.904 287.592 135.831 288.229 136.54C288.874 137.242 289.69 137.593 290.679 137.593C291.381 137.593 291.975 137.45 292.462 137.163C292.949 136.877 293.375 136.497 293.74 136.024L294.954 136.97C293.98 138.466 292.519 139.215 290.571 139.215ZM290.324 128.795C289.522 128.795 288.849 129.089 288.305 129.676C287.76 130.256 287.424 131.072 287.295 132.125H293.117V131.975C293.06 130.965 292.788 130.184 292.301 129.633C291.814 129.074 291.155 128.795 290.324 128.795ZM303.183 139V123.359H307.598C308.958 123.359 310.161 123.66 311.207 124.262C312.253 124.863 313.058 125.719 313.624 126.829C314.197 127.939 314.487 129.214 314.494 130.653V131.652C314.494 133.128 314.208 134.42 313.635 135.53C313.069 136.64 312.256 137.493 311.196 138.087C310.144 138.681 308.915 138.986 307.512 139H303.183ZM305.245 125.057V137.313H307.415C309.005 137.313 310.24 136.819 311.121 135.831C312.009 134.843 312.453 133.436 312.453 131.609V130.696C312.453 128.92 312.034 127.542 311.196 126.561C310.366 125.572 309.184 125.071 307.651 125.057H305.245ZM316.782 133.081C316.782 131.942 317.004 130.918 317.448 130.009C317.899 129.099 318.522 128.397 319.317 127.903C320.119 127.409 321.033 127.162 322.057 127.162C323.639 127.162 324.918 127.71 325.892 128.806C326.873 129.901 327.363 131.359 327.363 133.178V133.317C327.363 134.449 327.145 135.466 326.708 136.368C326.278 137.263 325.659 137.962 324.85 138.463C324.048 138.964 323.124 139.215 322.078 139.215C320.503 139.215 319.224 138.667 318.243 137.571C317.269 136.476 316.782 135.025 316.782 133.221V133.081ZM318.78 133.317C318.78 134.606 319.077 135.641 319.672 136.422C320.273 137.202 321.076 137.593 322.078 137.593C323.088 137.593 323.89 137.199 324.484 136.411C325.079 135.616 325.376 134.506 325.376 133.081C325.376 131.806 325.072 130.775 324.463 129.987C323.861 129.192 323.059 128.795 322.057 128.795C321.076 128.795 320.284 129.185 319.683 129.966C319.081 130.746 318.78 131.864 318.78 133.317ZM334.679 139.215C333.103 139.215 331.821 138.699 330.833 137.668C329.845 136.63 329.351 135.244 329.351 133.511V133.146C329.351 131.993 329.569 130.965 330.006 130.062C330.45 129.153 331.066 128.444 331.854 127.936C332.648 127.42 333.508 127.162 334.432 127.162C335.943 127.162 337.117 127.66 337.955 128.655C338.793 129.651 339.212 131.076 339.212 132.931V133.758H331.338C331.367 134.904 331.7 135.831 332.337 136.54C332.981 137.242 333.798 137.593 334.786 137.593C335.488 137.593 336.082 137.45 336.569 137.163C337.056 136.877 337.482 136.497 337.848 136.024L339.062 136.97C338.088 138.466 336.627 139.215 334.679 139.215ZM334.432 128.795C333.63 128.795 332.956 129.089 332.412 129.676C331.868 130.256 331.531 131.072 331.402 132.125H337.225V131.975C337.167 130.965 336.895 130.184 336.408 129.633C335.921 129.074 335.262 128.795 334.432 128.795Z" fill="#BB6BD9"/>
<path d="M256.368 123.359V122.359H255.368V123.359H256.368ZM258.441 123.359H259.441V122.359H258.441V123.359ZM257.088 137.947L256.404 137.217L256.401 137.22L257.088 137.947ZM248.569 134.682V133.682H247.569V134.682H248.569ZM250.632 134.682H251.632V133.682H250.632V134.682ZM251.362 136.776L250.645 137.473L250.65 137.478L251.362 136.776ZM255.562 136.723L254.851 136.02L254.846 136.025L255.562 136.723ZM256.368 134.467L257.368 134.474V134.467H256.368ZM256.368 124.359H258.441V122.359H256.368V124.359ZM257.441 123.359V134.435H259.441V123.359H257.441ZM257.441 134.435C257.441 135.718 257.063 136.6 256.404 137.217L257.771 138.677C258.917 137.604 259.441 136.145 259.441 134.435H257.441ZM256.401 137.22C255.73 137.854 254.8 138.215 253.5 138.215V140.215C255.194 140.215 256.655 139.731 257.774 138.674L256.401 137.22ZM253.5 138.215C252.114 138.215 251.174 137.863 250.545 137.286L249.193 138.759C250.297 139.772 251.778 140.215 253.5 140.215V138.215ZM250.545 137.286C249.929 136.72 249.569 135.9 249.569 134.682H247.569C247.569 136.328 248.076 137.735 249.193 138.759L250.545 137.286ZM248.569 135.682H250.632V133.682H248.569V135.682ZM249.632 134.682C249.632 135.761 249.93 136.737 250.645 137.473L252.08 136.08C251.821 135.813 251.632 135.393 251.632 134.682H249.632ZM250.65 137.478C251.387 138.226 252.391 138.528 253.5 138.528V136.528C252.747 136.528 252.326 136.329 252.074 136.074L250.65 137.478ZM253.5 138.528C254.582 138.528 255.542 138.178 256.279 137.42L254.846 136.025C254.538 136.342 254.123 136.528 253.5 136.528V138.528ZM256.274 137.425C257.035 136.655 257.36 135.625 257.368 134.474L255.368 134.459C255.362 135.242 255.15 135.717 254.851 136.02L256.274 137.425ZM257.368 134.467V123.359H255.368V134.467H257.368ZM268.818 139L267.924 139.447L268.2 140H268.818V139ZM268.539 137.775L269.532 137.654L269.277 135.567L267.819 137.082L268.539 137.775ZM262.405 138.248L261.74 138.994L261.747 139.001L262.405 138.248ZM262.685 132.963L263.272 133.772L263.273 133.771L262.685 132.963ZM268.507 131.953V132.953H269.507V131.953H268.507ZM267.884 129.386L267.177 130.093L267.183 130.099L267.884 129.386ZM264.264 129.3L263.666 128.498L264.264 129.3ZM263.544 130.6V131.6H264.544V130.6H263.544ZM261.546 130.6H260.546V131.6H261.546V130.6ZM262.158 128.924L261.363 128.317L261.362 128.319L262.158 128.924ZM263.834 127.635L263.428 126.721L263.424 126.722L263.834 127.635ZM269.312 128.172L268.649 128.92L268.653 128.924L269.312 128.172ZM270.494 130.933H271.494V130.92L271.494 130.908L270.494 130.933ZM270.902 138.828H271.902V138.621L271.82 138.432L270.902 138.828ZM270.902 139V140H271.902V139H270.902ZM268.507 135.745L269.406 136.182L269.507 135.975V135.745H268.507ZM268.507 133.36H269.507V132.36H268.507V133.36ZM269.713 138.553C269.713 138.553 269.712 138.551 269.711 138.548C269.709 138.546 269.708 138.541 269.705 138.535C269.701 138.523 269.694 138.507 269.687 138.485C269.673 138.44 269.656 138.379 269.638 138.3C269.601 138.139 269.565 137.927 269.532 137.654L267.546 137.896C267.618 138.488 267.725 139.049 267.924 139.447L269.713 138.553ZM267.819 137.082C267.075 137.854 266.229 138.215 265.23 138.215V140.215C266.796 140.215 268.155 139.616 269.259 138.469L267.819 137.082ZM265.23 138.215C264.283 138.215 263.588 137.954 263.063 137.495L261.747 139.001C262.697 139.831 263.886 140.215 265.23 140.215V138.215ZM263.071 137.502C262.557 137.044 262.31 136.493 262.31 135.777H260.31C260.31 137.052 260.792 138.149 261.74 138.994L263.071 137.502ZM262.31 135.777C262.31 134.862 262.635 134.235 263.272 133.772L262.097 132.154C260.901 133.023 260.31 134.272 260.31 135.777H262.31ZM263.273 133.771C263.964 133.268 265.023 132.953 266.573 132.953V130.953C264.786 130.953 263.253 131.311 262.096 132.155L263.273 133.771ZM266.573 132.953H268.507V130.953H266.573V132.953ZM269.507 131.953V131.04H267.507V131.953H269.507ZM269.507 131.04C269.507 130.133 269.228 129.304 268.585 128.673L267.183 130.099C267.371 130.283 267.507 130.558 267.507 131.04H269.507ZM268.591 128.679C267.926 128.014 267.019 127.763 266.047 127.763V129.763C266.693 129.763 267.011 129.927 267.177 130.093L268.591 128.679ZM266.047 127.763C265.163 127.763 264.348 127.989 263.666 128.498L264.862 130.101C265.139 129.895 265.512 129.763 266.047 129.763V127.763ZM263.666 128.498C262.984 129.007 262.544 129.717 262.544 130.6H264.544C264.544 130.465 264.584 130.308 264.862 130.101L263.666 128.498ZM263.544 129.6H261.546V131.6H263.544V129.6ZM262.546 130.6C262.546 130.272 262.656 129.922 262.954 129.529L261.362 128.319C260.844 129 260.546 129.767 260.546 130.6H262.546ZM262.953 129.531C263.256 129.134 263.675 128.803 264.244 128.547L263.424 126.722C262.59 127.097 261.892 127.625 261.363 128.317L262.953 129.531ZM264.24 128.549C264.81 128.295 265.447 128.162 266.165 128.162V126.162C265.193 126.162 264.276 126.344 263.428 126.721L264.24 128.549ZM266.165 128.162C267.339 128.162 268.125 128.455 268.649 128.92L269.976 127.424C268.982 126.542 267.669 126.162 266.165 126.162V128.162ZM268.653 128.924C269.167 129.375 269.471 130.012 269.494 130.957L271.494 130.908C271.46 129.504 270.976 128.301 269.972 127.42L268.653 128.924ZM269.494 130.933V136.282H271.494V130.933H269.494ZM269.494 136.282C269.494 137.418 269.637 138.419 269.984 139.225L271.82 138.432C271.624 137.977 271.494 137.281 271.494 136.282H269.494ZM269.902 138.828V139H271.902V138.828H269.902ZM270.902 138H268.818V140H270.902V138ZM265.521 138.485C266.325 138.485 267.088 138.275 267.793 137.868L266.793 136.136C266.381 136.374 265.962 136.485 265.521 136.485V138.485ZM267.793 137.868C268.502 137.459 269.058 136.9 269.406 136.182L267.607 135.308C267.455 135.622 267.201 135.9 266.793 136.136L267.793 137.868ZM269.507 135.745V133.36H267.507V135.745H269.507ZM268.507 132.36H266.949V134.36H268.507V132.36ZM266.949 132.36C265.667 132.36 264.541 132.542 263.705 133.032C262.786 133.57 262.297 134.435 262.297 135.498H264.297C264.297 135.136 264.417 134.932 264.715 134.758C265.096 134.535 265.797 134.36 266.949 134.36V132.36ZM262.297 135.498C262.297 136.368 262.6 137.153 263.275 137.723L264.565 136.195C264.409 136.063 264.297 135.875 264.297 135.498H262.297ZM263.275 137.723C263.905 138.255 264.682 138.485 265.521 138.485V136.485C265.056 136.485 264.766 136.365 264.565 136.195L263.275 137.723ZM275.489 127.377L276.488 127.333L276.446 126.377H275.489V127.377ZM275.554 128.838L274.555 128.882L274.673 131.554L276.337 129.46L275.554 128.838ZM282.751 131.319L283.751 131.319L283.751 131.312L282.751 131.319ZM282.751 139V140H283.751V139H282.751ZM280.764 139H279.764V140H280.764V139ZM280.764 131.309H281.764L281.764 131.3L280.764 131.309ZM280.184 129.45L279.451 130.131L279.457 130.138L280.184 129.45ZM275.597 130.718L274.698 130.28L274.597 130.487V130.718H275.597ZM275.597 139V140H276.597V139H275.597ZM273.609 139H272.609V140H273.609V139ZM273.609 127.377V126.377H272.609V127.377H273.609ZM274.49 127.421L274.555 128.882L276.553 128.794L276.488 127.333L274.49 127.421ZM276.337 129.46C277.034 128.583 277.905 128.162 279.034 128.162V126.162C277.298 126.162 275.849 126.859 274.771 128.216L276.337 129.46ZM279.034 128.162C280.074 128.162 280.686 128.45 281.06 128.868C281.454 129.308 281.741 130.068 281.751 131.327L283.751 131.312C283.739 129.799 283.396 128.48 282.551 127.535C281.686 126.567 280.45 126.162 279.034 126.162V128.162ZM281.751 131.319V139H283.751V131.319H281.751ZM282.751 138H280.764V140H282.751V138ZM281.764 139V131.309H279.764V139H281.764ZM281.764 131.3C281.755 130.337 281.534 129.423 280.91 128.763L279.457 130.138C279.592 130.28 279.758 130.605 279.764 131.317L281.764 131.3ZM280.916 128.77C280.283 128.087 279.378 127.849 278.433 127.849V129.849C279.077 129.849 279.34 130.011 279.451 130.131L280.916 128.77ZM278.433 127.849C277.599 127.849 276.828 128.075 276.159 128.547L277.312 130.181C277.616 129.966 277.977 129.849 278.433 129.849V127.849ZM276.159 128.547C275.528 128.992 275.04 129.576 274.698 130.28L276.496 131.156C276.697 130.742 276.969 130.424 277.312 130.181L276.159 128.547ZM274.597 130.718V139H276.597V130.718H274.597ZM275.597 138H273.609V140H275.597V138ZM274.609 139V127.377H272.609V139H274.609ZM273.609 128.377H275.489V126.377H273.609V128.377ZM286.726 137.668L286.001 138.357L286.004 138.36L286.726 137.668ZM285.898 130.062L285 129.624L284.998 129.627L285.898 130.062ZM287.746 127.936L288.288 128.776L288.29 128.775L287.746 127.936ZM293.848 128.655L293.083 129.299L293.848 128.655ZM295.104 133.758V134.758H296.104V133.758H295.104ZM287.23 133.758V132.758H286.205L286.231 133.783L287.23 133.758ZM288.229 136.54L287.486 137.209L287.493 137.216L288.229 136.54ZM292.462 137.163L291.955 136.301L292.462 137.163ZM293.74 136.024L294.355 135.235L293.563 134.619L292.949 135.413L293.74 136.024ZM294.954 136.97L295.792 137.515L296.293 136.745L295.569 136.181L294.954 136.97ZM288.305 129.676L289.034 130.36L289.038 130.356L288.305 129.676ZM287.295 132.125L286.302 132.003L286.165 133.125H287.295V132.125ZM293.117 132.125V133.125H294.117V132.125H293.117ZM293.117 131.975H294.117V131.946L294.116 131.918L293.117 131.975ZM292.301 129.633L291.547 130.29L291.551 130.295L292.301 129.633ZM290.571 138.215C289.237 138.215 288.227 137.789 287.448 136.976L286.004 138.36C287.201 139.609 288.754 140.215 290.571 140.215V138.215ZM287.45 136.979C286.674 136.164 286.243 135.044 286.243 133.511H284.243C284.243 135.444 284.8 137.096 286.001 138.357L287.45 136.979ZM286.243 133.511V133.146H284.243V133.511H286.243ZM286.243 133.146C286.243 132.121 286.437 131.246 286.799 130.498L284.998 129.627C284.487 130.684 284.243 131.864 284.243 133.146H286.243ZM286.797 130.501C287.168 129.742 287.666 129.178 288.288 128.776L287.204 127.095C286.251 127.711 285.517 128.564 285 129.624L286.797 130.501ZM288.29 128.775C288.928 128.361 289.599 128.162 290.324 128.162V126.162C289.202 126.162 288.154 126.479 287.202 127.097L288.29 128.775ZM290.324 128.162C291.593 128.162 292.466 128.567 293.083 129.299L294.613 128.011C293.553 126.753 292.077 126.162 290.324 126.162V128.162ZM293.083 129.299C293.715 130.051 294.104 131.213 294.104 132.931H296.104C296.104 130.939 295.656 129.25 294.613 128.011L293.083 129.299ZM294.104 132.931V133.758H296.104V132.931H294.104ZM295.104 132.758H287.23V134.758H295.104V132.758ZM286.231 133.783C286.264 135.116 286.658 136.288 287.486 137.209L288.973 135.871C288.526 135.374 288.254 134.691 288.23 133.733L286.231 133.783ZM287.493 137.216C288.335 138.133 289.422 138.593 290.679 138.593V136.593C289.959 136.593 289.413 136.351 288.966 135.864L287.493 137.216ZM290.679 138.593C291.516 138.593 292.295 138.421 292.969 138.025L291.955 136.301C291.655 136.478 291.245 136.593 290.679 136.593V138.593ZM292.969 138.025C293.572 137.67 294.093 137.204 294.532 136.636L292.949 135.413C292.657 135.791 292.326 136.083 291.955 136.301L292.969 138.025ZM293.126 136.813L294.34 137.759L295.569 136.181L294.355 135.235L293.126 136.813ZM294.116 136.424C293.346 137.608 292.217 138.215 290.571 138.215V140.215C292.821 140.215 294.615 139.325 295.792 137.515L294.116 136.424ZM290.324 127.795C289.244 127.795 288.305 128.204 287.571 128.996L289.038 130.356C289.393 129.973 289.8 129.795 290.324 129.795V127.795ZM287.575 128.992C286.844 129.771 286.449 130.81 286.302 132.003L288.288 132.247C288.399 131.335 288.677 130.741 289.034 130.36L287.575 128.992ZM287.295 133.125H293.117V131.125H287.295V133.125ZM294.117 132.125V131.975H292.117V132.125H294.117ZM294.116 131.918C294.05 130.767 293.733 129.744 293.05 128.971L291.551 130.295C291.843 130.625 292.07 131.163 292.119 132.031L294.116 131.918ZM293.055 128.976C292.353 128.171 291.405 127.795 290.324 127.795V129.795C290.905 129.795 291.274 129.977 291.547 130.29L293.055 128.976ZM303.183 139H302.183V140H303.183V139ZM303.183 123.359V122.359H302.183V123.359H303.183ZM313.624 126.829L312.733 127.283L312.735 127.288L313.624 126.829ZM314.494 130.653L315.494 130.653L315.494 130.648L314.494 130.653ZM313.635 135.53L312.746 135.072L312.744 135.076L313.635 135.53ZM311.196 138.087L310.707 137.215L310.705 137.216L311.196 138.087ZM307.512 139V140L307.522 140L307.512 139ZM305.245 125.057V124.057H304.245V125.057H305.245ZM305.245 137.313H304.245V138.313H305.245V137.313ZM311.121 135.831L310.377 135.163L310.375 135.166L311.121 135.831ZM311.196 126.561L310.431 127.204L310.436 127.21L311.196 126.561ZM307.651 125.057L307.661 124.057H307.651V125.057ZM304.183 139V123.359H302.183V139H304.183ZM303.183 124.359H307.598V122.359H303.183V124.359ZM307.598 124.359C308.806 124.359 309.833 124.625 310.708 125.128L311.706 123.395C310.49 122.695 309.111 122.359 307.598 122.359V124.359ZM310.708 125.128C311.58 125.63 312.252 126.34 312.733 127.283L314.515 126.375C313.864 125.098 312.925 124.096 311.706 123.395L310.708 125.128ZM312.735 127.288C313.226 128.237 313.488 129.353 313.494 130.658L315.494 130.648C315.486 129.075 315.168 127.641 314.513 126.37L312.735 127.288ZM313.494 130.653V131.652H315.494V130.653H313.494ZM313.494 131.652C313.494 132.997 313.234 134.127 312.746 135.072L314.523 135.989C315.182 134.714 315.494 133.258 315.494 131.652H313.494ZM312.744 135.076C312.265 136.015 311.59 136.719 310.707 137.215L311.685 138.959C312.922 138.266 313.873 137.266 314.526 135.984L312.744 135.076ZM310.705 137.216C309.821 137.715 308.764 137.987 307.502 138L307.522 140C309.067 139.984 310.466 139.648 311.688 138.958L310.705 137.216ZM307.512 138H303.183V140H307.512V138ZM304.245 125.057V137.313H306.245V125.057H304.245ZM305.245 138.313H307.415V136.313H305.245V138.313ZM307.415 138.313C309.228 138.313 310.759 137.74 311.868 136.496L310.375 135.166C309.721 135.899 308.782 136.313 307.415 136.313V138.313ZM311.865 136.499C312.971 135.269 313.453 133.589 313.453 131.609H311.453C311.453 133.282 311.047 134.417 310.377 135.163L311.865 136.499ZM313.453 131.609V130.696H311.453V131.609H313.453ZM313.453 130.696C313.453 128.772 312.999 127.131 311.957 125.911L310.436 127.21C311.07 127.952 311.453 129.069 311.453 130.696H313.453ZM311.962 125.917C310.908 124.663 309.425 124.073 307.661 124.057L307.642 126.057C308.943 126.069 309.824 126.482 310.431 127.204L311.962 125.917ZM307.651 124.057H305.245V126.057H307.651V124.057ZM317.448 130.009L316.552 129.564L316.55 129.57L317.448 130.009ZM319.317 127.903L318.793 127.052L318.789 127.054L319.317 127.903ZM325.892 128.806L325.144 129.47L325.147 129.473L325.892 128.806ZM326.708 136.368L325.808 135.932L325.806 135.935L326.708 136.368ZM324.85 138.463L324.323 137.613L324.32 137.615L324.85 138.463ZM318.243 137.571L317.496 138.236L317.498 138.238L318.243 137.571ZM319.672 136.422L318.876 137.028L318.88 137.032L319.672 136.422ZM324.484 136.411L325.283 137.013L325.285 137.01L324.484 136.411ZM324.463 129.987L323.665 130.591L323.672 130.599L324.463 129.987ZM317.782 133.081C317.782 132.075 317.977 131.204 318.347 130.447L316.55 129.57C316.031 130.632 315.782 131.809 315.782 133.081H317.782ZM318.344 130.453C318.72 129.696 319.222 129.14 319.845 128.753L318.789 127.054C317.823 127.655 317.079 128.503 316.552 129.564L318.344 130.453ZM319.842 128.755C320.473 128.366 321.201 128.162 322.057 128.162V126.162C320.864 126.162 319.766 126.452 318.793 127.052L319.842 128.755ZM322.057 128.162C323.379 128.162 324.376 128.606 325.144 129.47L326.639 128.141C325.459 126.814 323.899 126.162 322.057 126.162V128.162ZM325.147 129.473C325.927 130.344 326.363 131.544 326.363 133.178H328.363C328.363 131.173 327.818 129.458 326.637 128.139L325.147 129.473ZM326.363 133.178V133.317H328.363V133.178H326.363ZM326.363 133.317C326.363 134.317 326.171 135.182 325.808 135.932L327.608 136.804C328.119 135.749 328.363 134.58 328.363 133.317H326.363ZM325.806 135.935C325.456 136.666 324.963 137.216 324.323 137.613L325.376 139.313C326.355 138.707 327.101 137.86 327.61 136.801L325.806 135.935ZM324.32 137.615C323.693 138.007 322.957 138.215 322.078 138.215V140.215C323.291 140.215 324.402 139.922 325.38 139.311L324.32 137.615ZM322.078 138.215C320.764 138.215 319.765 137.772 318.988 136.904L317.498 138.238C318.684 139.562 320.241 140.215 322.078 140.215V138.215ZM318.991 136.907C318.215 136.034 317.782 134.839 317.782 133.221H315.782C315.782 135.211 316.324 136.917 317.496 138.236L318.991 136.907ZM317.782 133.221V133.081H315.782V133.221H317.782ZM317.78 133.317C317.78 134.757 318.113 136.025 318.876 137.028L320.467 135.816C320.042 135.257 319.78 134.456 319.78 133.317H317.78ZM318.88 137.032C319.674 138.064 320.772 138.593 322.078 138.593V136.593C321.379 136.593 320.872 136.341 320.464 135.811L318.88 137.032ZM322.078 138.593C323.393 138.593 324.494 138.058 325.283 137.013L323.686 135.809C323.286 136.339 322.783 136.593 322.078 136.593V138.593ZM325.285 137.01C326.054 135.981 326.376 134.631 326.376 133.081H324.376C324.376 134.381 324.103 135.251 323.684 135.812L325.285 137.01ZM326.376 133.081C326.376 131.648 326.032 130.383 325.254 129.376L323.672 130.599C324.111 131.168 324.376 131.965 324.376 133.081H326.376ZM325.26 129.384C324.468 128.337 323.37 127.795 322.057 127.795V129.795C322.748 129.795 323.254 130.047 323.665 130.591L325.26 129.384ZM322.057 127.795C320.764 127.795 319.68 128.33 318.891 129.355L320.475 130.576C320.888 130.04 321.387 129.795 322.057 129.795V127.795ZM318.891 129.355C318.103 130.377 317.78 131.743 317.78 133.317H319.78C319.78 131.984 320.059 131.116 320.475 130.576L318.891 129.355ZM330.833 137.668L330.109 138.357L330.111 138.36L330.833 137.668ZM330.006 130.062L329.107 129.624L329.106 129.627L330.006 130.062ZM331.854 127.936L332.396 128.776L332.398 128.775L331.854 127.936ZM337.955 128.655L337.19 129.299L337.955 128.655ZM339.212 133.758V134.758H340.212V133.758H339.212ZM331.338 133.758V132.758H330.313L330.338 133.783L331.338 133.758ZM332.337 136.54L331.593 137.209L331.6 137.216L332.337 136.54ZM336.569 137.163L336.062 136.301L336.569 137.163ZM337.848 136.024L338.462 135.235L337.67 134.619L337.056 135.413L337.848 136.024ZM339.062 136.97L339.9 137.515L340.401 136.745L339.676 136.181L339.062 136.97ZM332.412 129.676L333.141 130.36L333.146 130.356L332.412 129.676ZM331.402 132.125L330.41 132.003L330.272 133.125H331.402V132.125ZM337.225 132.125V133.125H338.225V132.125H337.225ZM337.225 131.975H338.225V131.946L338.223 131.918L337.225 131.975ZM336.408 129.633L335.654 130.29L335.659 130.295L336.408 129.633ZM334.679 138.215C333.345 138.215 332.334 137.789 331.555 136.976L330.111 138.36C331.308 139.609 332.862 140.215 334.679 140.215V138.215ZM331.557 136.979C330.782 136.164 330.351 135.044 330.351 133.511H328.351C328.351 135.444 328.908 137.096 330.109 138.357L331.557 136.979ZM330.351 133.511V133.146H328.351V133.511H330.351ZM330.351 133.146C330.351 132.121 330.544 131.246 330.906 130.498L329.106 129.627C328.594 130.684 328.351 131.864 328.351 133.146H330.351ZM330.904 130.501C331.275 129.742 331.773 129.178 332.396 128.776L331.311 127.095C330.358 127.711 329.625 128.564 329.107 129.624L330.904 130.501ZM332.398 128.775C333.035 128.361 333.706 128.162 334.432 128.162V126.162C333.309 126.162 332.262 126.479 331.309 127.097L332.398 128.775ZM334.432 128.162C335.701 128.162 336.574 128.567 337.19 129.299L338.72 128.011C337.661 126.753 336.185 126.162 334.432 126.162V128.162ZM337.19 129.299C337.823 130.051 338.212 131.213 338.212 132.931H340.212C340.212 130.939 339.763 129.25 338.72 128.011L337.19 129.299ZM338.212 132.931V133.758H340.212V132.931H338.212ZM339.212 132.758H331.338V134.758H339.212V132.758ZM330.338 133.783C330.372 135.116 330.766 136.288 331.593 137.209L333.081 135.871C332.633 135.374 332.362 134.691 332.338 133.733L330.338 133.783ZM331.6 137.216C332.442 138.133 333.53 138.593 334.786 138.593V136.593C334.066 136.593 333.521 136.351 333.073 135.864L331.6 137.216ZM334.786 138.593C335.623 138.593 336.403 138.421 337.076 138.025L336.062 136.301C335.762 136.478 335.352 136.593 334.786 136.593V138.593ZM337.076 138.025C337.679 137.67 338.2 137.204 338.639 136.636L337.056 135.413C336.765 135.791 336.433 136.083 336.062 136.301L337.076 138.025ZM337.233 136.813L338.447 137.759L339.676 136.181L338.462 135.235L337.233 136.813ZM338.223 136.424C337.453 137.608 336.325 138.215 334.679 138.215V140.215C336.928 140.215 338.722 139.325 339.9 137.515L338.223 136.424ZM334.432 127.795C333.352 127.795 332.413 128.204 331.679 128.996L333.146 130.356C333.5 129.973 333.907 129.795 334.432 129.795V127.795ZM331.683 128.992C330.952 129.771 330.556 130.81 330.41 132.003L332.395 132.247C332.507 131.335 332.784 130.741 333.141 130.36L331.683 128.992ZM331.402 133.125H337.225V131.125H331.402V133.125ZM338.225 132.125V131.975H336.225V132.125H338.225ZM338.223 131.918C338.158 130.767 337.84 129.744 337.158 128.971L335.659 130.295C335.95 130.625 336.177 131.163 336.226 132.031L338.223 131.918ZM337.162 128.976C336.461 128.171 335.512 127.795 334.432 127.795V129.795C335.012 129.795 335.382 129.977 335.654 130.29L337.162 128.976Z" fill="#D813B3"/>
</g>
</g>
<defs>
<linearGradient id="paint0_linear" x1="83.1299" y1="275.85" x2="83.1299" y2="143.26" gradientUnits="userSpaceOnUse">
<stop stop-color="#808080" stop-opacity="0.25"/>
<stop offset="0.54" stop-color="#808080" stop-opacity="0.12"/>
<stop offset="1" stop-color="#808080" stop-opacity="0.1"/>
</linearGradient>
<linearGradient id="paint1_linear" x1="238421" y1="212794" x2="238421" y2="146866" gradientUnits="userSpaceOnUse">
<stop stop-color="#808080" stop-opacity="0.25"/>
<stop offset="0.54" stop-color="#808080" stop-opacity="0.12"/>
<stop offset="1" stop-color="#808080" stop-opacity="0.1"/>
</linearGradient>
<linearGradient id="paint2_linear" x1="157390" y1="382477" x2="352445" y2="125101" gradientUnits="userSpaceOnUse">
<stop stop-color="#808080" stop-opacity="0.25"/>
<stop offset="0.54" stop-color="#808080" stop-opacity="0.12"/>
<stop offset="1" stop-color="#808080" stop-opacity="0.1"/>
</linearGradient>
<linearGradient id="paint3_linear" x1="236.87" y1="452.34" x2="236.87" y2="80.35" gradientUnits="userSpaceOnUse">
<stop stop-color="#FCFDFF"/>
<stop offset="1" stop-color="#B2EBF2"/>
</linearGradient>
<linearGradient id="paint4_linear" x1="87461.7" y1="162246" x2="87461.7" y2="101645" gradientUnits="userSpaceOnUse">
<stop stop-color="#808080" stop-opacity="0.25"/>
<stop offset="0.54" stop-color="#808080" stop-opacity="0.12"/>
<stop offset="1" stop-color="#808080" stop-opacity="0.1"/>
</linearGradient>
<linearGradient id="paint5_linear" x1="59836.4" y1="60475" x2="59836.4" y2="48484.8" gradientUnits="userSpaceOnUse">
<stop stop-color="#808080" stop-opacity="0.25"/>
<stop offset="0.54" stop-color="#808080" stop-opacity="0.12"/>
<stop offset="1" stop-color="#808080" stop-opacity="0.1"/>
</linearGradient>
<linearGradient id="paint6_linear" x1="48341.8" y1="62687.3" x2="48341.8" y2="53235.1" gradientUnits="userSpaceOnUse">
<stop stop-color="#808080" stop-opacity="0.25"/>
<stop offset="0.54" stop-color="#808080" stop-opacity="0.12"/>
<stop offset="1" stop-color="#808080" stop-opacity="0.1"/>
</linearGradient>
<linearGradient id="paint7_linear" x1="69222.7" y1="56115.4" x2="69222.7" y2="41313.4" gradientUnits="userSpaceOnUse">
<stop stop-color="#808080" stop-opacity="0.25"/>
<stop offset="0.54" stop-color="#808080" stop-opacity="0.12"/>
<stop offset="1" stop-color="#808080" stop-opacity="0.1"/>
</linearGradient>
<clipPath id="clip0">
<rect width="472.08" height="753.74" fill="white"/>
</clipPath>
</defs>
</svg>
